<svg width="522" height="229" xmlns="http://www.w3.org/2000/svg" xmlns:xlink="http://www.w3.org/1999/xlink" xml:space="preserve" overflow="hidden"><defs><clipPath id="clip0"><rect x="0" y="0" width="522" height="229"/></clipPath></defs><g clip-path="url(#clip0)"><path d="M19.2838 0.996183 19.2838 38.3531" stroke="#000000" stroke-width="1.99237" stroke-linecap="round" fill="none" transform="matrix(0 1.00202 -1 0 68.4879 89.1466)"/><path d="M25.5099 13.4485 25.5099 25.9008" stroke="#000000" stroke-width="1.99237" stroke-linecap="round" fill="none" transform="matrix(0 1.00202 -1 0 68.4879 89.1466)"/><path d="M31.7362 0.996183 31.7362 38.3531" stroke="#000000" stroke-width="1.99237" stroke-linecap="round" fill="none" transform="matrix(0 1.00202 -1 0 68.4879 89.1466)"/><path d="M37.9624 13.4485 37.9624 25.9008" stroke="#000000" stroke-width="1.99237" stroke-linecap="round" fill="none" transform="matrix(0 1.00202 -1 0 68.4879 89.1466)"/><path d="M13.0576 19.6746 18.0385 19.6746" stroke="#000000" stroke-width="0.747141" stroke-linecap="round" fill="none" transform="matrix(0 1.00202 -1 0 68.4879 89.1466)"/><path d="M50.4148 19.6746 37.9624 19.6746" stroke="#787878" stroke-width="1.21064" stroke-linecap="round" fill="none" transform="matrix(0 1.00202 -1 0 68.4879 89.1466)"/><text fill="#8C8C8C" font-family="Arial,Arial_MSFontService,sans-serif" font-weight="400" font-size="2.50001" transform="matrix(0 1.73299 -1.72948 0 50.6293 132)">1</text><path d="M0.605321 19.6746 13.0576 19.6746" stroke="#787878" stroke-width="1.21064" stroke-linecap="round" fill="none" transform="matrix(0 1.00202 -1 0 68.4879 89.1466)"/><text fill="#8C8C8C" font-family="Arial,Arial_MSFontService,sans-serif" font-weight="400" font-size="2.50001" transform="matrix(0 1.73299 -1.72948 0 50.6293 95)">2</text><path d="M25.6828 13.4796 86.3878 13.4796 86.3878 123.745 25.6828 123.745Z" stroke="#000000" stroke-width="1.55654" stroke-linecap="round" fill="#FFFFFF" transform="matrix(1 0 0 1.00202 434.834 27.3904)"/><path d="M0.605318 62.2614 25.5099 62.2614" stroke="#787878" stroke-width="1.21064" stroke-linecap="round" fill="none" transform="matrix(1 0 0 1.00202 434.834 27.3904)"/><text fill="#8C8C8C" font-family="Arial,Arial_MSFontService,sans-serif" font-weight="400" font-size="3.49999" transform="matrix(1.72948 0 0 1.73299 462.765 91)">SDA</text><path d="M0.605318 74.7137 25.5099 74.7137" stroke="#787878" stroke-width="1.21064" stroke-linecap="round" fill="none" transform="matrix(1 0 0 1.00202 434.834 27.3904)"/><text fill="#8C8C8C" font-family="Arial,Arial_MSFontService,sans-serif" font-weight="400" font-size="3.49999" transform="matrix(1.72948 0 0 1.73299 462.765 103)">XDA</text><text font-family="Arial,Arial_MSFontService,sans-serif" font-weight="400" font-size="4.25" transform="matrix(1.72948 0 0 1.73299 482.701 83)">MPU</text><text font-family="Arial,Arial_MSFontService,sans-serif" font-weight="400" font-size="4.25" transform="matrix(1.72948 0 0 1.73299 482.692 92)">6050</text><text font-family="Arial,Arial_MSFontService,sans-serif" font-weight="400" font-size="4.25" transform="matrix(1.72948 0 0 1.73299 475.754 101)">(</text><text font-family="Arial,Arial_MSFontService,sans-serif" font-weight="400" font-size="4.25" transform="matrix(1.72948 0 0 1.73299 478.202 101)">GY</text><text font-family="Arial,Arial_MSFontService,sans-serif" font-weight="400" font-size="4.25" transform="matrix(1.72948 0 0 1.73299 488.822 101)">-</text><text font-family="Arial,Arial_MSFontService,sans-serif" font-weight="400" font-size="4.25" transform="matrix(1.72948 0 0 1.73299 491.27 101)">521</text><text font-family="Arial,Arial_MSFontService,sans-serif" font-weight="400" font-size="4.25" transform="matrix(1.72948 0 0 1.73299 503.533 101)">)</text><path d="M0.605318 49.7848 25.5099 49.7848" stroke="#787878" stroke-width="1.21064" stroke-linecap="round" fill="none" transform="matrix(1 0 0 1.00202 434.834 27.3904)"/><text fill="#8C8C8C" font-family="Arial,Arial_MSFontService,sans-serif" font-weight="400" font-size="3.49999" transform="matrix(1.72948 0 0 1.73299 462.765 78)">SCL</text><path d="M0.605318 37.3325 25.5099 37.3325" stroke="#787878" stroke-width="1.21064" stroke-linecap="round" fill="none" transform="matrix(1 0 0 1.00202 434.834 27.3904)"/><text fill="#8C8C8C" font-family="Arial,Arial_MSFontService,sans-serif" font-weight="400" font-size="3.49999" transform="matrix(1.72948 0 0 1.73299 462.765 66)">GND</text><path d="M0.605318 87.2008 25.5099 87.2008" stroke="#787878" stroke-width="1.21064" stroke-linecap="round" fill="none" transform="matrix(1 0 0 1.00202 434.834 27.3904)"/><text fill="#8C8C8C" font-family="Arial,Arial_MSFontService,sans-serif" font-weight="400" font-size="3.49999" transform="matrix(1.72948 0 0 1.73299 462.765 116)">XCL</text><path d="M0.605318 99.6531 25.5099 99.6531" stroke="#787878" stroke-width="1.21064" stroke-linecap="round" fill="none" transform="matrix(1 0 0 1.00202 434.834 27.3904)"/><text fill="#8C8C8C" font-family="Arial,Arial_MSFontService,sans-serif" font-weight="400" font-size="3.49999" transform="matrix(1.72948 0 0 1.73299 462.765 128)">AD</text><text fill="#8C8C8C" font-family="Arial,Arial_MSFontService,sans-serif" font-weight="400" font-size="3.49999" transform="matrix(1.72948 0 0 1.73299 471.174 128)">0</text><path d="M0.605318 24.8802 25.5099 24.8802" stroke="#787878" stroke-width="1.21064" stroke-linecap="round" fill="none" transform="matrix(1 0 0 1.00202 434.834 27.3904)"/><text fill="#8C8C8C" font-family="Arial,Arial_MSFontService,sans-serif" font-weight="400" font-size="3.49999" transform="matrix(1.72948 0 0 1.73299 462.765 54)">VCC</text><path d="M0.605318 112.046 25.5099 112.046" stroke="#787878" stroke-width="1.21064" stroke-linecap="round" fill="none" transform="matrix(1 0 0 1.00202 434.834 27.3904)"/><text fill="#8C8C8C" font-family="Arial,Arial_MSFontService,sans-serif" font-weight="400" font-size="3.49999" transform="matrix(1.72948 0 0 1.73299 462.765 141)">INT</text><path d="M13.106 0.778268 62.1058 0.778268 62.1058 61.4832 13.106 61.4832Z" stroke="#000000" stroke-width="1.55654" stroke-linecap="round" stroke-linejoin="round" fill="none" transform="matrix(1 0 0 1.00202 85.5474 27.3488)"/><text font-family="Arial,Arial_MSFontService,sans-serif" font-weight="400" font-size="3.5" transform="matrix(1.72948 0 0 1.73299 111.63 61)">TP</text><text font-family="Arial,Arial_MSFontService,sans-serif" font-weight="400" font-size="3.5" transform="matrix(1.72948 0 0 1.73299 119.365 61)">4056</text><path d="M0.928451 24.9046 13.3744 24.9046" stroke="#787878" stroke-width="1.21064" stroke-linecap="round" stroke-linejoin="round" fill="none" transform="matrix(1 0 0 1.00202 85.5474 27.3488)"/><text fill="#8C8C8C" font-family="Arial,Arial_MSFontService,sans-serif" font-weight="400" font-size="3.5" transform="matrix(1.72948 0 0 1.73299 101.33 55)">+</text><path d="M0.928451 37.3569 13.3744 37.3569" stroke="#787878" stroke-width="1.21064" stroke-linecap="round" stroke-linejoin="round" fill="none" transform="matrix(1 0 0 1.00202 85.5474 27.3488)"/><text fill="#8C8C8C" font-family="Arial,Arial_MSFontService,sans-serif" font-weight="400" font-size="3.5" transform="matrix(1.72948 0 0 1.73299 101.855 66)">-</text><path d="M61.9446 12.4523 74.3907 12.4523" stroke="#787878" stroke-width="1.21064" stroke-linecap="round" stroke-linejoin="round" fill="none" transform="matrix(1 0 0 1.00202 85.5474 27.3488)"/><text fill="#8C8C8C" font-family="Arial,Arial_MSFontService,sans-serif" font-weight="400" font-size="3.5" transform="matrix(1.72948 0 0 1.73299 129.543 42)">OUT</text><text fill="#8C8C8C" font-family="Arial,Arial_MSFontService,sans-serif" font-weight="400" font-size="3.5" transform="matrix(1.72948 0 0 1.73299 142.321 42)">+</text><path d="M62.0038 24.9219 75.0576 24.9219" stroke="#787878" stroke-width="1.21064" stroke-linecap="round" stroke-linejoin="round" fill="none" transform="matrix(1 0 0 1.00202 85.5474 27.3488)"/><text fill="#8C8C8C" font-family="Arial,Arial_MSFontService,sans-serif" font-weight="400" font-size="3.5" transform="matrix(1.72948 0 0 1.73299 137.166 55)">B</text><text fill="#8C8C8C" font-family="Arial,Arial_MSFontService,sans-serif" font-weight="400" font-size="3.5" transform="matrix(1.72948 0 0 1.73299 141.204 55)">+</text><path d="M61.9607 37.3569 75.0145 37.3569" stroke="#787878" stroke-width="1.21064" stroke-linecap="round" stroke-linejoin="round" fill="none" transform="matrix(1 0 0 1.00202 85.5474 27.3488)"/><text fill="#8C8C8C" font-family="Arial,Arial_MSFontService,sans-serif" font-weight="400" font-size="3.5" transform="matrix(1.72948 0 0 1.73299 137.765 67)">B</text><text fill="#8C8C8C" font-family="Arial,Arial_MSFontService,sans-serif" font-weight="400" font-size="3.5" transform="matrix(1.72948 0 0 1.73299 141.802 67)">-</text><path d="M62.0038 49.8265 75.0576 49.8265" stroke="#787878" stroke-width="1.21064" stroke-linecap="round" stroke-linejoin="round" fill="none" transform="matrix(1 0 0 1.00202 85.5474 27.3488)"/><text fill="#8C8C8C" font-family="Arial,Arial_MSFontService,sans-serif" font-weight="400" font-size="3.5" transform="matrix(1.72948 0 0 1.73299 129.288 79)">OUT</text><text fill="#8C8C8C" font-family="Arial,Arial_MSFontService,sans-serif" font-weight="400" font-size="3.5" transform="matrix(1.72948 0 0 1.73299 142.065 79)">-</text><path d="M13.0576 14.7113 25.5099 8.4852" stroke="#000000" stroke-width="1.24523" stroke-linecap="round" transform="matrix(1 0 0 1.00202 98.0168 149.877)"/><path d="M25.5099 27.1636 28.623 27.1636" stroke="#000000" stroke-width="0.622615" stroke-linecap="round" fill="none" transform="matrix(1 0 0 1.00202 98.0168 149.877)"/><path d="M25.5099 2.25905 28.623 2.25905" stroke="#000000" stroke-width="0.747137" stroke-linecap="round" fill="none" transform="matrix(1 0 0 1.00202 98.0168 149.877)"/><path d="M27.2709 2.25905C27.2709 3.23161 26.4825 4.02001 25.5099 4.02001 24.5373 4.02001 23.7489 3.2316 23.7489 2.25905 23.7489 1.2865 24.5373 0.498091 25.5099 0.498091 26.4825 0.498091 27.2709 1.2865 27.2709 2.25905Z" stroke="#000000" stroke-width="0.996183" fill="none" transform="matrix(1 0 0 1.00202 98.0168 149.877)"/><path d="M27.2709 27.1636C27.2709 28.1362 26.4825 28.9246 25.5099 28.9246 24.5373 28.9246 23.7489 28.1362 23.7489 27.1636 23.7489 26.1911 24.5373 25.4027 25.5099 25.4027 26.4825 25.4027 27.2709 26.1911 27.2709 27.1636Z" stroke="#000000" stroke-width="0.996183" fill="none" transform="matrix(1 0 0 1.00202 98.0168 149.877)"/><path d="M14.8186 14.7113C14.8186 15.6839 14.0301 16.4723 13.0576 16.4723 12.085 16.4723 11.2966 15.6839 11.2966 14.7113 11.2966 13.7388 12.085 12.9504 13.0576 12.9504 14.0301 12.9504 14.8186 13.7388 14.8186 14.7113Z" stroke="#000000" stroke-width="0.996183" fill="none" transform="matrix(1 0 0 1.00202 98.0168 149.877)"/><path d="M0.605318 14.7113 13.0576 14.7113" stroke="#787878" stroke-width="1.21064" stroke-linecap="round" fill="none" transform="matrix(1 0 0 1.00202 98.0168 149.877)"/><text fill="#8C8C8C" font-family="Arial,Arial_MSFontService,sans-serif" font-weight="400" font-size="2.5" transform="matrix(1.72948 0 0 1.73299 103.646 163)">6</text><path d="M37.9622 27.1636 25.5099 27.1636" stroke="#787878" stroke-width="1.21064" stroke-linecap="round" fill="none" transform="matrix(1 0 0 1.00202 98.0168 149.877)"/><text fill="#8C8C8C" font-family="Arial,Arial_MSFontService,sans-serif" font-weight="400" font-size="2.5" transform="matrix(1.72948 0 0 1.73299 128.551 175)">7</text><path d="M37.9622 2.25905 25.5099 2.25905" stroke="#787878" stroke-width="1.21064" stroke-linecap="round" fill="none" transform="matrix(1 0 0 1.00202 98.0168 149.877)"/><text fill="#8C8C8C" font-family="Arial,Arial_MSFontService,sans-serif" font-weight="400" font-size="2.5" transform="matrix(1.72948 0 0 1.73299 128.551 150)">5</text><path d="M13.0438 0.52999 125.3 0.52999 125.3 199.952 13.0438 199.952Z" stroke="#373435" stroke-width="1.05998" fill="#FEFEFE" transform="matrix(1 0 0 1.00202 234.914 14.2648)"/><path d="M125.807 187.407 137.733 187.407" stroke="#555555" stroke-width="1.24523" stroke-linecap="round" fill="none" transform="matrix(1 0 0 1.00202 234.914 14.2648)"/><text fill="#555555" font-family="Arial,Arial_MSFontService,sans-serif" font-weight="400" font-size="3.23309" transform="matrix(1.7258 0 0 1.73669 343.71 204)">3</text><text fill="#555555" font-family="Arial,Arial_MSFontService,sans-serif" font-weight="400" font-size="3.23309" transform="matrix(1.7258 0 0 1.73669 346.813 204)">.</text><text fill="#555555" font-family="Arial,Arial_MSFontService,sans-serif" font-weight="400" font-size="3.23309" transform="matrix(1.7258 0 0 1.73669 348.363 204)">3</text><text fill="#555555" font-family="Arial,Arial_MSFontService,sans-serif" font-weight="400" font-size="3.23309" transform="matrix(1.7258 0 0 1.73669 351.466 204)">V</text><path d="M12.5639 13.0748 0.693036 13.0748" stroke="#555555" stroke-width="1.24523" stroke-linecap="round" fill="none" transform="matrix(1 0 0 1.00202 234.914 14.2648)"/><text fill="#555555" font-family="Arial,Arial_MSFontService,sans-serif" font-weight="400" font-size="3.23823" transform="matrix(1.72854 0 0 1.73394 252.488 29)">EN</text><text fill="#555555" font-family="Arial,Arial_MSFontService,sans-serif" font-weight="400" font-size="3.23823" transform="matrix(1.72854 0 0 1.73394 260.263 29)">/</text><text fill="#555555" font-family="Arial,Arial_MSFontService,sans-serif" font-weight="400" font-size="3.23823" transform="matrix(1.72854 0 0 1.73394 261.819 29)">RESET</text><text fill="#555555" font-family="Arial,Arial_MSFontService,sans-serif" font-weight="400" font-size="2.52" transform="matrix(1.72948 0 0 1.73299 239.827 25)">16</text><path d="M12.588 25.5592 0.660468 25.5592" stroke="#555555" stroke-width="1.24523" stroke-linecap="round" fill="none" transform="matrix(1 0 0 1.00202 234.914 14.2648)"/><text fill="#555555" font-family="Arial,Arial_MSFontService,sans-serif" font-weight="400" font-size="3.24" transform="matrix(1.72948 0 0 1.73299 252.689 42)">GPIO</text><text fill="#555555" font-family="Arial,Arial_MSFontService,sans-serif" font-weight="400" font-size="3.24" transform="matrix(1.72948 0 0 1.73299 266.701 42)">36</text><text fill="#555555" font-family="Arial,Arial_MSFontService,sans-serif" font-weight="400" font-size="3.24" transform="matrix(1.72948 0 0 1.73299 272.934 42)">/</text><text fill="#555555" font-family="Arial,Arial_MSFontService,sans-serif" font-weight="400" font-size="3.24" transform="matrix(1.72948 0 0 1.73299 274.491 42)">SVP</text><text fill="#555555" font-family="Arial,Arial_MSFontService,sans-serif" font-weight="400" font-size="2.52" transform="matrix(1.72948 0 0 1.73299 239.827 38)">17</text><path d="M12.5639 37.9795 0.693036 37.9795" stroke="#555555" stroke-width="1.24523" stroke-linecap="round" fill="none" transform="matrix(1 0 0 1.00202 234.914 14.2648)"/><text fill="#555555" font-family="Arial,Arial_MSFontService,sans-serif" font-weight="400" font-size="3.24" transform="matrix(1.72948 0 0 1.73299 252.689 54)">GPIO</text><text fill="#555555" font-family="Arial,Arial_MSFontService,sans-serif" font-weight="400" font-size="3.24" transform="matrix(1.72948 0 0 1.73299 266.701 54)">39</text><text fill="#555555" font-family="Arial,Arial_MSFontService,sans-serif" font-weight="400" font-size="3.24" transform="matrix(1.72948 0 0 1.73299 272.934 54)">/</text><text fill="#555555" font-family="Arial,Arial_MSFontService,sans-serif" font-weight="400" font-size="3.24" transform="matrix(1.72948 0 0 1.73299 274.491 54)">SVN</text><text fill="#555555" font-family="Arial,Arial_MSFontService,sans-serif" font-weight="400" font-size="2.52" transform="matrix(1.72948 0 0 1.73299 239.827 50)">18</text><path d="M12.5345 50.4318 0.663553 50.4318" stroke="#555555" stroke-width="1.24523" stroke-linecap="round" fill="none" transform="matrix(1 0 0 1.00202 234.914 14.2648)"/><text fill="#555555" font-family="Arial,Arial_MSFontService,sans-serif" font-weight="400" font-size="3.24" transform="matrix(1.72948 0 0 1.73299 252.689 67)">GPIO</text><text fill="#555555" font-family="Arial,Arial_MSFontService,sans-serif" font-weight="400" font-size="3.24" transform="matrix(1.72948 0 0 1.73299 266.701 67)">34</text><text fill="#555555" font-family="Arial,Arial_MSFontService,sans-serif" font-weight="400" font-size="2.52" transform="matrix(1.72948 0 0 1.73299 239.827 63)">19</text><path d="M12.588 62.9161 0.660468 62.9161" stroke="#555555" stroke-width="1.24523" stroke-linecap="round" fill="none" transform="matrix(1 0 0 1.00202 234.914 14.2648)"/><text fill="#555555" font-family="Arial,Arial_MSFontService,sans-serif" font-weight="400" font-size="3.24" transform="matrix(1.72948 0 0 1.73299 252.746 79)">GPIO</text><text fill="#555555" font-family="Arial,Arial_MSFontService,sans-serif" font-weight="400" font-size="3.24" transform="matrix(1.72948 0 0 1.73299 266.757 79)">35</text><text fill="#555555" font-family="Arial,Arial_MSFontService,sans-serif" font-weight="400" font-size="2.52" transform="matrix(1.72948 0 0 1.73299 240.001 75)">20</text><path d="M0.635665 75.3678 12.5624 75.3678" stroke="#555555" stroke-width="1.24523" stroke-linecap="round" fill="none" transform="matrix(1 0 0 1.00202 234.914 14.2648)"/><text fill="#555555" font-family="Arial,Arial_MSFontService,sans-serif" font-weight="400" font-size="3.24" transform="matrix(1.72948 0 0 1.73299 252.689 92)">GPIO</text><text fill="#555555" font-family="Arial,Arial_MSFontService,sans-serif" font-weight="400" font-size="3.24" transform="matrix(1.72948 0 0 1.73299 266.701 92)">32</text><text fill="#555555" font-family="Arial,Arial_MSFontService,sans-serif" font-weight="400" font-size="2.52" transform="matrix(1.72948 0 0 1.73299 240.001 88)">21</text><path d="M12.5624 87.8201 0.635665 87.8201" stroke="#555555" stroke-width="1.24523" stroke-linecap="round" fill="none" transform="matrix(1 0 0 1.00202 234.914 14.2648)"/><text fill="#555555" font-family="Arial,Arial_MSFontService,sans-serif" font-weight="400" font-size="3.24" transform="matrix(1.72948 0 0 1.73299 252.689 104)">GPIO</text><text fill="#555555" font-family="Arial,Arial_MSFontService,sans-serif" font-weight="400" font-size="3.24" transform="matrix(1.72948 0 0 1.73299 266.701 104)">33</text><text fill="#555555" font-family="Arial,Arial_MSFontService,sans-serif" font-weight="400" font-size="2.52" transform="matrix(1.72948 0 0 1.73299 240.001 100)">22</text><path d="M12.5624 100.272 0.635665 100.272" stroke="#555555" stroke-width="1.24523" stroke-linecap="round" fill="none" transform="matrix(1 0 0 1.00202 234.914 14.2648)"/><text fill="#555555" font-family="Arial,Arial_MSFontService,sans-serif" font-weight="400" font-size="3.24" transform="matrix(1.72948 0 0 1.73299 252.689 117)">GPIO</text><text fill="#555555" font-family="Arial,Arial_MSFontService,sans-serif" font-weight="400" font-size="3.24" transform="matrix(1.72948 0 0 1.73299 266.701 117)">25</text><text fill="#555555" font-family="Arial,Arial_MSFontService,sans-serif" font-weight="400" font-size="2.52" transform="matrix(1.72948 0 0 1.73299 240.001 113)">23</text><path d="M12.5877 112.725 0.660966 112.725" stroke="#555555" stroke-width="1.24523" stroke-linecap="round" fill="none" transform="matrix(1 0 0 1.00202 234.914 14.2648)"/><text fill="#555555" font-family="Arial,Arial_MSFontService,sans-serif" font-weight="400" font-size="3.24" transform="matrix(1.72948 0 0 1.73299 252.689 129)">GPIO</text><text fill="#555555" font-family="Arial,Arial_MSFontService,sans-serif" font-weight="400" font-size="3.24" transform="matrix(1.72948 0 0 1.73299 266.701 129)">26</text><text fill="#555555" font-family="Arial,Arial_MSFontService,sans-serif" font-weight="400" font-size="2.52" transform="matrix(1.72948 0 0 1.73299 240.001 125)">24</text><path d="M0.693036 125.146 12.5639 125.146" stroke="#555555" stroke-width="1.24523" stroke-linecap="round" fill="none" transform="matrix(1 0 0 1.00202 234.914 14.2648)"/><text fill="#555555" font-family="Arial,Arial_MSFontService,sans-serif" font-weight="400" font-size="3.24" transform="matrix(1.72948 0 0 1.73299 252.689 142)">GPIO</text><text fill="#555555" font-family="Arial,Arial_MSFontService,sans-serif" font-weight="400" font-size="3.24" transform="matrix(1.72948 0 0 1.73299 266.701 142)">27</text><text fill="#555555" font-family="Arial,Arial_MSFontService,sans-serif" font-weight="400" font-size="2.52" transform="matrix(1.7518 0 0 1.71091 239.999 138)">25</text><path d="M12.5163 137.629 0.693036 137.629" stroke="#555555" stroke-width="1.24523" stroke-linecap="round" fill="none" transform="matrix(1 0 0 1.00202 234.914 14.2648)"/><text fill="#555555" font-family="Arial,Arial_MSFontService,sans-serif" font-weight="400" font-size="3.24" transform="matrix(1.72948 0 0 1.73299 252.689 154)">GPIO</text><text fill="#555555" font-family="Arial,Arial_MSFontService,sans-serif" font-weight="400" font-size="3.24" transform="matrix(1.72948 0 0 1.73299 266.701 154)">14</text><text fill="#555555" font-family="Arial,Arial_MSFontService,sans-serif" font-weight="400" font-size="2.52" transform="matrix(1.72948 0 0 1.73299 240.001 150)">26</text><path d="M12.5024 150.05 0.631482 150.05" stroke="#555555" stroke-width="1.24523" stroke-linecap="round" fill="none" transform="matrix(1 0 0 1.00202 234.914 14.2648)"/><text fill="#555555" font-family="Arial,Arial_MSFontService,sans-serif" font-weight="400" font-size="3.24" transform="matrix(1.72948 0 0 1.73299 252.689 167)">GPIO</text><text fill="#555555" font-family="Arial,Arial_MSFontService,sans-serif" font-weight="400" font-size="3.24" transform="matrix(1.72948 0 0 1.73299 266.701 167)">12</text><text fill="#555555" font-family="Arial,Arial_MSFontService,sans-serif" font-weight="400" font-size="2.52" transform="matrix(1.72948 0 0 1.73299 240.001 162)">27</text><text fill="#555555" font-family="Arial,Arial_MSFontService,sans-serif" font-weight="400" font-size="3.24" transform="matrix(1.72948 0 0 1.73299 252.689 192)">GND</text><path d="M0.654686 174.955 12.5256 174.955" stroke="#555555" stroke-width="1.24523" stroke-linecap="round" fill="none" transform="matrix(1 0 0 1.00202 234.914 14.2648)"/><path d="M0.631482 162.502 12.5024 162.502" stroke="#555555" stroke-width="1.24523" stroke-linecap="round" fill="none" transform="matrix(1 0 0 1.00202 234.914 14.2648)"/><text fill="#555555" font-family="Arial,Arial_MSFontService,sans-serif" font-weight="400" font-size="3.24" transform="matrix(1.72948 0 0 1.73299 252.689 179)">GPIO</text><text fill="#555555" font-family="Arial,Arial_MSFontService,sans-serif" font-weight="400" font-size="3.24" transform="matrix(1.72948 0 0 1.73299 266.701 179)">13</text><text fill="#555555" font-family="Arial,Arial_MSFontService,sans-serif" font-weight="400" font-size="2.52" transform="matrix(1.72948 0 0 1.73299 240.001 175)">28</text><path d="M0.654686 187.407 12.5256 187.407" stroke="#555555" stroke-width="1.24523" stroke-linecap="round" fill="none" transform="matrix(1 0 0 1.00202 234.914 14.2648)"/><text fill="#555555" font-family="Arial,Arial_MSFontService,sans-serif" font-weight="400" font-size="3.24" transform="matrix(1.72948 0 0 1.73299 253.032 204)">VIN </text><text fill="#555555" font-family="Arial,Arial_MSFontService,sans-serif" font-weight="400" font-size="3.24" transform="matrix(1.72948 0 0 1.73299 263.929 204)">5</text><text fill="#555555" font-family="Arial,Arial_MSFontService,sans-serif" font-weight="400" font-size="3.24" transform="matrix(1.72948 0 0 1.73299 267.046 204)">V</text><path d="M125.799 174.986 137.622 174.986" stroke="#555555" stroke-width="1.24523" stroke-linecap="round" fill="none" transform="matrix(1 0 0 1.00202 234.914 14.2648)"/><text fill="#555555" font-family="Arial,Arial_MSFontService,sans-serif" font-weight="400" font-size="3.24" transform="matrix(1.72948 0 0 1.73299 343.591 192)">GND</text><text fill="#555555" font-family="Arial,Arial_MSFontService,sans-serif" font-weight="400" font-size="2.52" transform="matrix(1.72948 0 0 1.73299 363.528 187)">2</text><path d="M137.671 162.502 125.8 162.502" stroke="#555555" stroke-width="1.24523" stroke-linecap="round" fill="none" transform="matrix(1 0 0 1.00202 234.914 14.2648)"/><text fill="#555555" font-family="Arial,Arial_MSFontService,sans-serif" font-weight="400" font-size="3.24515" transform="matrix(1.73223 0 0 1.73023 336.119 179)">GPIO</text><text fill="#555555" font-family="Arial,Arial_MSFontService,sans-serif" font-weight="400" font-size="3.24515" transform="matrix(1.73223 0 0 1.73023 350.175 179)">15</text><text fill="#555555" font-family="Arial,Arial_MSFontService,sans-serif" font-weight="400" font-size="2.52" transform="matrix(1.72948 0 0 1.73299 363.558 175)">3</text><path d="M137.671 150.05 125.8 150.05" stroke="#555555" stroke-width="1.24523" stroke-linecap="round" fill="none" transform="matrix(1 0 0 1.00202 234.914 14.2648)"/><text fill="#555555" font-family="Arial,Arial_MSFontService,sans-serif" font-weight="400" font-size="3.24" transform="matrix(1.72948 0 0 1.73299 339.357 167)">GPIO</text><text fill="#555555" font-family="Arial,Arial_MSFontService,sans-serif" font-weight="400" font-size="3.24" transform="matrix(1.72948 0 0 1.73299 353.369 167)">2</text><text fill="#555555" font-family="Arial,Arial_MSFontService,sans-serif" font-weight="400" font-size="2.52" transform="matrix(1.72948 0 0 1.73299 363.683 162)">4</text><path d="M137.671 137.598 125.8 137.598" stroke="#555555" stroke-width="1.24523" stroke-linecap="round" fill="none" transform="matrix(1 0 0 1.00202 234.914 14.2648)"/><text fill="#555555" font-family="Arial,Arial_MSFontService,sans-serif" font-weight="400" font-size="3.24" transform="matrix(1.72948 0 0 1.73299 339.197 154)">GPIO</text><text fill="#555555" font-family="Arial,Arial_MSFontService,sans-serif" font-weight="400" font-size="3.24" transform="matrix(1.72948 0 0 1.73299 353.209 154)">4</text><text fill="#555555" font-family="Arial,Arial_MSFontService,sans-serif" font-weight="400" font-size="2.52" transform="matrix(1.72948 0 0 1.73299 363.454 150)">5</text><path d="M137.671 125.146 125.8 125.146" stroke="#555555" stroke-width="1.24523" stroke-linecap="round" fill="none" transform="matrix(1 0 0 1.00202 234.914 14.2648)"/><text fill="#555555" font-family="Arial,Arial_MSFontService,sans-serif" font-weight="400" font-size="3.24032" transform="matrix(1.72966 0 0 1.73281 324.913 142)">GPIO</text><text fill="#555555" font-family="Arial,Arial_MSFontService,sans-serif" font-weight="400" font-size="3.24032" transform="matrix(1.72966 0 0 1.73281 338.927 142)">16</text><text fill="#555555" font-family="Arial,Arial_MSFontService,sans-serif" font-weight="400" font-size="3.24032" transform="matrix(1.72966 0 0 1.73281 345.161 142)">/</text><text fill="#555555" font-family="Arial,Arial_MSFontService,sans-serif" font-weight="400" font-size="3.24032" transform="matrix(1.72966 0 0 1.73281 346.718 142)">TX</text><text fill="#555555" font-family="Arial,Arial_MSFontService,sans-serif" font-weight="400" font-size="3.24032" transform="matrix(1.72966 0 0 1.73281 353.88 142)">2</text><text fill="#555555" font-family="Arial,Arial_MSFontService,sans-serif" font-weight="400" font-size="2.52" transform="matrix(1.72948 0 0 1.73299 363.492 137)">6</text><path d="M125.8 112.693 137.671 112.693" stroke="#555555" stroke-width="1.24523" stroke-linecap="round" fill="none" transform="matrix(1 0 0 1.00202 234.914 14.2648)"/><text fill="#555555" font-family="Arial,Arial_MSFontService,sans-serif" font-weight="400" font-size="3.24" transform="matrix(1.72948 0 0 1.73299 324.913 129)">GPIO</text><text fill="#555555" font-family="Arial,Arial_MSFontService,sans-serif" font-weight="400" font-size="3.24" transform="matrix(1.72948 0 0 1.73299 338.924 129)">17</text><text fill="#555555" font-family="Arial,Arial_MSFontService,sans-serif" font-weight="400" font-size="3.24" transform="matrix(1.72948 0 0 1.73299 345.157 129)">/</text><text fill="#555555" font-family="Arial,Arial_MSFontService,sans-serif" font-weight="400" font-size="3.24" transform="matrix(1.72948 0 0 1.73299 346.714 129)">TX</text><text fill="#555555" font-family="Arial,Arial_MSFontService,sans-serif" font-weight="400" font-size="3.24" transform="matrix(1.72948 0 0 1.73299 353.874 129)">2</text><text fill="#555555" font-family="Arial,Arial_MSFontService,sans-serif" font-weight="400" font-size="2.52" transform="matrix(1.72948 0 0 1.73299 363.541 125)">7</text><path d="M125.8 100.241 137.671 100.241" stroke="#555555" stroke-width="1.24523" stroke-linecap="round" fill="none" transform="matrix(1 0 0 1.00202 234.914 14.2648)"/><text fill="#555555" font-family="Arial,Arial_MSFontService,sans-serif" font-weight="400" font-size="3.24339" transform="matrix(1.7313 0 0 1.73117 339.357 117)">GPIO</text><text fill="#555555" font-family="Arial,Arial_MSFontService,sans-serif" font-weight="400" font-size="3.24339" transform="matrix(1.7313 0 0 1.73117 353.398 117)">5</text><text fill="#555555" font-family="Arial,Arial_MSFontService,sans-serif" font-weight="400" font-size="2.52" transform="matrix(1.72948 0 0 1.73299 363.507 113)">8</text><path d="M125.8 87.7886 137.671 87.7886" stroke="#555555" stroke-width="1.24523" stroke-linecap="round" fill="none" transform="matrix(1 0 0 1.00202 234.914 14.2648)"/><text fill="#555555" font-family="Arial,Arial_MSFontService,sans-serif" font-weight="400" font-size="3.24" transform="matrix(1.72948 0 0 1.73299 336.12 104)">GPIO</text><text fill="#555555" font-family="Arial,Arial_MSFontService,sans-serif" font-weight="400" font-size="3.24" transform="matrix(1.72948 0 0 1.73299 350.131 104)">18</text><text fill="#555555" font-family="Arial,Arial_MSFontService,sans-serif" font-weight="400" font-size="2.52" transform="matrix(1.72948 0 0 1.73299 363.507 100)">9</text><path d="M125.799 75.3678 137.622 75.3678" stroke="#555555" stroke-width="1.24523" stroke-linecap="round" fill="none" transform="matrix(1 0 0 1.00202 234.914 14.2648)"/><text fill="#555555" font-family="Arial,Arial_MSFontService,sans-serif" font-weight="400" font-size="3.24" transform="matrix(1.72948 0 0 1.73299 336.12 92)">GPIO</text><text fill="#555555" font-family="Arial,Arial_MSFontService,sans-serif" font-weight="400" font-size="3.24" transform="matrix(1.72948 0 0 1.73299 350.131 92)">19</text><text fill="#555555" font-family="Arial,Arial_MSFontService,sans-serif" font-weight="400" font-size="2.52" transform="matrix(1.72948 0 0 1.73299 363.302 88)">10</text><path d="M137.671 62.8841 125.8 62.8841" stroke="#555555" stroke-width="1.24523" stroke-linecap="round" fill="none" transform="matrix(1 0 0 1.00202 234.914 14.2648)"/><text fill="#555555" font-family="Arial,Arial_MSFontService,sans-serif" font-weight="400" font-size="3.24" transform="matrix(1.72948 0 0 1.73299 336.618 79)">GPIO</text><text fill="#555555" font-family="Arial,Arial_MSFontService,sans-serif" font-weight="400" font-size="3.24" transform="matrix(1.72948 0 0 1.73299 350.629 79)">21</text><text fill="#555555" font-family="Arial,Arial_MSFontService,sans-serif" font-weight="400" font-size="2.52" transform="matrix(1.72948 0 0 1.73299 363.354 75)">11</text><path d="M137.671 50.4318 125.8 50.4318" stroke="#555555" stroke-width="1.24523" stroke-linecap="round" fill="none" transform="matrix(1 0 0 1.00202 234.914 14.2648)"/><text fill="#555555" font-family="Arial,Arial_MSFontService,sans-serif" font-weight="400" font-size="3.24" transform="matrix(1.72948 0 0 1.73299 327.403 67)">GPIO</text><text fill="#555555" font-family="Arial,Arial_MSFontService,sans-serif" font-weight="400" font-size="3.24" transform="matrix(1.72948 0 0 1.73299 341.415 67)">3</text><text fill="#555555" font-family="Arial,Arial_MSFontService,sans-serif" font-weight="400" font-size="3.24" transform="matrix(1.72948 0 0 1.73299 344.531 67)">/</text><text fill="#555555" font-family="Arial,Arial_MSFontService,sans-serif" font-weight="400" font-size="3.24" transform="matrix(1.72948 0 0 1.73299 346.088 67)">RX</text><text fill="#555555" font-family="Arial,Arial_MSFontService,sans-serif" font-weight="400" font-size="3.24" transform="matrix(1.72948 0 0 1.73299 353.872 67)">0</text><text fill="#555555" font-family="Arial,Arial_MSFontService,sans-serif" font-weight="400" font-size="2.52" transform="matrix(1.72948 0 0 1.73299 363.359 63)">12</text><path d="M137.671 37.9795 125.8 37.9795" stroke="#555555" stroke-width="1.24523" stroke-linecap="round" fill="none" transform="matrix(1 0 0 1.00202 234.914 14.2648)"/><text fill="#555555" font-family="Arial,Arial_MSFontService,sans-serif" font-weight="400" font-size="3.24" transform="matrix(1.72948 0 0 1.73299 327.403 54)">GPIO</text><text fill="#555555" font-family="Arial,Arial_MSFontService,sans-serif" font-weight="400" font-size="3.24" transform="matrix(1.72948 0 0 1.73299 341.415 54)">1</text><text fill="#555555" font-family="Arial,Arial_MSFontService,sans-serif" font-weight="400" font-size="3.24" transform="matrix(1.72948 0 0 1.73299 344.531 54)">/</text><text fill="#555555" font-family="Arial,Arial_MSFontService,sans-serif" font-weight="400" font-size="3.24" transform="matrix(1.72948 0 0 1.73299 346.088 54)">TX</text><text fill="#555555" font-family="Arial,Arial_MSFontService,sans-serif" font-weight="400" font-size="3.24" transform="matrix(1.72948 0 0 1.73299 353.248 54)">0</text><text fill="#555555" font-family="Arial,Arial_MSFontService,sans-serif" font-weight="400" font-size="2.52" transform="matrix(1.72948 0 0 1.73299 363.359 50)">13</text><path d="M137.671 25.5272 125.8 25.5272" stroke="#555555" stroke-width="1.24523" stroke-linecap="round" fill="none" transform="matrix(1 0 0 1.00202 234.914 14.2648)"/><text fill="#555555" font-family="Arial,Arial_MSFontService,sans-serif" font-weight="400" font-size="3.24" transform="matrix(1.72948 0 0 1.73299 336.12 42)">GPIO</text><text fill="#555555" font-family="Arial,Arial_MSFontService,sans-serif" font-weight="400" font-size="3.24" transform="matrix(1.72948 0 0 1.73299 350.131 42)">22</text><text fill="#555555" font-family="Arial,Arial_MSFontService,sans-serif" font-weight="400" font-size="2.52" transform="matrix(1.72948 0 0 1.73299 363.378 38)">14</text><path d="M137.671 13.0748 125.8 13.0748" stroke="#555555" stroke-width="1.24523" stroke-linecap="round" fill="none" transform="matrix(1 0 0 1.00202 234.914 14.2648)"/><text fill="#555555" font-family="Arial,Arial_MSFontService,sans-serif" font-weight="400" font-size="3.24" transform="matrix(1.72948 0 0 1.73299 336.12 29)">GPIO</text><text fill="#555555" font-family="Arial,Arial_MSFontService,sans-serif" font-weight="400" font-size="3.24" transform="matrix(1.72948 0 0 1.73299 350.131 29)">23</text><text fill="#555555" font-family="Arial,Arial_MSFontService,sans-serif" font-weight="400" font-size="2.52" transform="matrix(1.72948 0 0 1.73299 363.359 25)">15</text><text font-family="Arial,Arial_MSFontService,sans-serif" font-weight="400" font-size="4.32" transform="matrix(1.72948 0 0 1.73299 288.359 108)">ESP</text><text font-family="Arial,Arial_MSFontService,sans-serif" font-weight="400" font-size="4.32" transform="matrix(1.72948 0 0 1.73299 303.309 108)">32</text><text font-family="Arial,Arial_MSFontService,sans-serif" font-weight="400" font-size="4.32" transform="matrix(1.72948 0 0 1.73299 311.62 108)">S</text><text font-family="Arial,Arial_MSFontService,sans-serif" font-weight="400" font-size="4.32" transform="matrix(1.72948 0 0 1.73299 290.955 120)">30</text><text font-family="Arial,Arial_MSFontService,sans-serif" font-weight="400" font-size="4.32" transform="matrix(1.72948 0 0 1.73299 299.265 120)">PIN</text><text font-family="Arial,Arial_MSFontService,sans-serif" font-weight="400" font-size="4.24999" transform="matrix(1.72948 0 0 1.73299 296.381 133)">WiFi</text><text font-family="Arial,Arial_MSFontService,sans-serif" font-weight="400" font-size="4.32" transform="matrix(1.72948 0 0 1.73299 288.245 145)">Module</text><text fill="#555555" font-family="Arial,Arial_MSFontService,sans-serif" font-weight="400" font-size="2.52" transform="matrix(1.72948 0 0 1.73299 363.389 200)">1</text><text fill="#555555" font-family="Arial,Arial_MSFontService,sans-serif" font-weight="400" font-size="2.52" transform="matrix(1.72948 0 0 1.73299 240.001 187)">29</text><text fill="#555555" font-family="Arial,Arial_MSFontService,sans-serif" font-weight="400" font-size="2.52" transform="matrix(1.72948 0 0 1.73299 239.991 200)">30</text><path d="M173.438 64.1964 173.438 201.163" stroke="#404040" stroke-width="1.21064" stroke-linecap="round" fill="none" transform="matrix(1 0 0 1.00202 0 0.174902)"/><path d="M173.438 201.163 49.2116 201.163" stroke="#404040" stroke-width="1.21064" stroke-linecap="round" fill="none" transform="matrix(1 0 0 1.00202 0 0.174902)"/><path d="M49.2116 201.163 48.8131 139.207" stroke="#404040" stroke-width="1.21064" stroke-linecap="round" transform="matrix(1 0 0 1.00202 0 0.174902)"/><path d="M160.261 64.4932 173.438 64.1964" stroke="#404040" stroke-width="1.21064" stroke-linecap="round" transform="matrix(1 0 0 1.00202 0 0.174902)"/><path d="M173.438 2.61419 49.2116 2.61419" stroke="#404040" stroke-width="1.21064" stroke-linecap="round" fill="none" transform="matrix(1 0 0 1.00202 0 0.174902)"/><path d="M173.438 52.517 173.438 2.61419" stroke="#404040" stroke-width="1.21064" stroke-linecap="round" fill="none" transform="matrix(1 0 0 1.00202 0 0.174902)"/><path d="M160.261 52.0409 173.438 52.517" stroke="#404040" stroke-width="1.21064" stroke-linecap="round" transform="matrix(1 0 0 1.00202 0 0.174902)"/><path d="M49.2116 2.61419 48.8131 89.3974" stroke="#404040" stroke-width="1.21064" stroke-linecap="round" transform="matrix(1 0 0 1.00202 0 0.174902)"/><path d="M235.597 189.015 99.1143 189.484" stroke="#404040" stroke-width="1.21064" stroke-linecap="round" transform="matrix(1 0 0 1.00202 0 0.174902)"/><path d="M99.1143 189.484 98.6223 164.111" stroke="#404040" stroke-width="1.21064" stroke-linecap="round" transform="matrix(1 0 0 1.00202 0 0.174902)"/><path d="M397.468 64.1964 434.834 64.4932" stroke="#404040" stroke-width="1.21064" stroke-linecap="round" transform="matrix(1 0 0 1.00202 0 0.174902)"/><path d="M372.573 189.015 397.223 189.569" stroke="#404040" stroke-width="1.21064" stroke-linecap="round" transform="matrix(1 0 0 1.00202 0 0.174902)"/><path d="M397.223 189.569 397.468 64.1964" stroke="#404040" stroke-width="1.21064" stroke-linecap="round" transform="matrix(1 0 0 1.00202 0 0.174902)"/><path d="M421.891 39.7759 421.891 76.9375" stroke="#404040" stroke-width="1.21064" stroke-linecap="round" fill="none" transform="matrix(1 0 0 1.00202 0 0.174902)"/><path d="M421.891 76.9375 434.834 76.9455" stroke="#404040" stroke-width="1.21064" stroke-linecap="round" transform="matrix(1 0 0 1.00202 0 0.174902)"/><path d="M372.573 39.5886 421.891 39.7759" stroke="#404040" stroke-width="1.21064" stroke-linecap="round" transform="matrix(1 0 0 1.00202 0 0.174902)"/><path d="M410.21 89.6786 434.834 89.4223" stroke="#404040" stroke-width="1.21064" stroke-linecap="round" transform="matrix(1 0 0 1.00202 0 0.174902)"/><path d="M410.21 76.9375 410.21 89.6786" stroke="#404040" stroke-width="1.21064" stroke-linecap="round" fill="none" transform="matrix(1 0 0 1.00202 0 0.174902)"/><path d="M372.573 76.9455 410.21 76.9375" stroke="#404040" stroke-width="1.21064" stroke-linecap="round" transform="matrix(1 0 0 1.00202 0 0.174902)"/><path d="M160.696 151.261 135.979 151.659" stroke="#404040" stroke-width="1.21064" stroke-linecap="round" transform="matrix(1 0 0 1.00202 0 0.174902)"/><path d="M160.261 76.9455 160.696 151.261" stroke="#404040" stroke-width="1.21064" stroke-linecap="round" transform="matrix(1 0 0 1.00202 0 0.174902)"/><path d="M384.954 201.836 384.954 226.372" stroke="#404040" stroke-width="1.21064" stroke-linecap="round" fill="none" transform="matrix(1 0 0 1.00202 0 0.174902)"/><path d="M387.444 201.836C387.444 203.211 386.329 204.327 384.954 204.327 383.578 204.327 382.463 203.212 382.463 201.836 382.463 200.461 383.578 199.346 384.954 199.346 386.329 199.346 387.444 200.461 387.444 201.836Z" transform="matrix(1 0 0 1.00202 0 0.174902)"/><path d="M384.954 226.372 184.982 226.372" stroke="#404040" stroke-width="1.21064" stroke-linecap="round" fill="none" transform="matrix(1 0 0 1.00202 0 0.174902)"/><path d="M184.982 176.074 135.979 176.563" stroke="#404040" stroke-width="1.21064" stroke-linecap="round" transform="matrix(1 0 0 1.00202 0 0.174902)"/><path d="M187.473 176.074C187.473 177.449 186.358 178.564 184.982 178.564 183.607 178.564 182.492 177.449 182.492 176.074 182.492 174.698 183.607 173.583 184.982 173.583 186.358 173.583 187.473 174.698 187.473 176.074Z" transform="matrix(1 0 0 1.00202 0 0.174902)"/><path d="M372.573 201.468 384.954 201.836" stroke="#404040" stroke-width="1.21064" stroke-linecap="round" transform="matrix(1 0 0 1.00202 0 0.174902)"/><path d="M184.982 226.372 184.982 176.074" stroke="#404040" stroke-width="1.21064" stroke-linecap="round" fill="none" transform="matrix(1 0 0 1.00202 0 0.174902)"/><path d="M384.954 52.1635 434.834 52.0409" stroke="#404040" stroke-width="1.21064" stroke-linecap="round" transform="matrix(1 0 0 1.00202 0 0.174902)"/><path d="M384.954 201.836 384.954 52.1635" stroke="#404040" stroke-width="1.21064" stroke-linecap="round" fill="none" transform="matrix(1 0 0 1.00202 0 0.174902)"/><path d="M184.982 176.074 184.982 39.8952" stroke="#404040" stroke-width="1.21064" stroke-linecap="round" fill="none" transform="matrix(1 0 0 1.00202 0 0.174902)"/><path d="M184.982 39.8952 160.261 39.5886" stroke="#404040" stroke-width="1.21064" stroke-linecap="round" transform="matrix(1 0 0 1.00202 0 0.174902)"/><text font-family="Arial,Arial_MSFontService,sans-serif" font-weight="400" font-size="5" transform="matrix(1.72948 0 0 1.73299 106.007 24)">TP</text><text font-family="Arial,Arial_MSFontService,sans-serif" font-weight="400" font-size="5" transform="matrix(1.72948 0 0 1.73299 117.057 24)">4056</text><text font-family="Arial,Arial_MSFontService,sans-serif" font-weight="400" font-size="5" transform="matrix(1.72948 0 0 1.73299 102.608 147)">Switch</text><text font-family="Arial,Arial_MSFontService,sans-serif" font-weight="400" font-size="5" transform="matrix(1.72948 0 0 1.73299 472.097 35)">MPU</text><text font-family="Arial,Arial_MSFontService,sans-serif" font-weight="400" font-size="5" transform="matrix(1.72948 0 0 1.73299 491.313 35)">6050</text><text font-family="Arial,Arial_MSFontService,sans-serif" font-weight="400" font-size="5" transform="matrix(1.72948 0 0 1.73299 274.013 7)">ESP</text><text font-family="Arial,Arial_MSFontService,sans-serif" font-weight="400" font-size="5" transform="matrix(1.72948 0 0 1.73299 291.316 7)">32</text><text font-family="Arial,Arial_MSFontService,sans-serif" font-weight="400" font-size="5" transform="matrix(1.72948 0 0 1.73299 300.935 7)">S</text><text font-family="Arial,Arial_MSFontService,sans-serif" font-weight="400" font-size="5" transform="matrix(1.72948 0 0 1.73299 306.702 7)">-</text><text font-family="Arial,Arial_MSFontService,sans-serif" font-weight="400" font-size="5" transform="matrix(1.72948 0 0 1.73299 309.582 7)">PIN</text><text font-family="Arial,Arial_MSFontService,sans-serif" font-weight="400" font-size="5" transform="matrix(1.72948 0 0 1.73299 323.997 7)">30</text><text font-family="Arial,Arial_MSFontService,sans-serif" font-weight="400" font-size="5" transform="matrix(1.72948 0 0 1.73299 0 118)">Battery</text></g></svg>